HIERARCHY
ROOT Hips
{
	OFFSET -3.958830 18.904000 13.208200
	CHANNELS 6 Xposition Yposition Zposition Zrotation Yrotation Xrotation 
	JOINT LHipJoint
	{
		OFFSET 0.000000 0.000000 0.000000
		CHANNELS 3 Zrotation Yrotation Xrotation
		JOINT LeftUpLeg
		{
			OFFSET 1.800000 -1.400000 0.085000
			CHANNELS 3 Zrotation Yrotation Xrotation
			JOINT LeftLeg
			{
				OFFSET 2.215000 -6.000000 0.000000
				CHANNELS 3 Zrotation Yrotation Xrotation
				JOINT LeftFoot
				{
					OFFSET 2.500000 -6.900000 0.000000
					CHANNELS 3 Zrotation Yrotation Xrotation
					JOINT LeftToeBase
					{
						OFFSET 0.200000 -0.500000 1.950000
						CHANNELS 3 Zrotation Yrotation Xrotation
						End Site
						{
							OFFSET 0.000000 0.000000 0.000000
						}
					}
				}
			}
		}
	}
	JOINT RHipJoint
	{
		OFFSET 0.000000 0.000000 0.000000
		CHANNELS 3 Zrotation Yrotation Xrotation
		JOINT RightUpLeg
		{
			OFFSET -1.800000 -1.400000 0.085000
			CHANNELS 3 Zrotation Yrotation Xrotation
			JOINT RightLeg
			{
				OFFSET -2.215000 -6.000000 0.000000
				CHANNELS 3 Zrotation Yrotation Xrotation
				JOINT RightFoot
				{
					OFFSET -2.500000 -6.900000 0.000000
					CHANNELS 3 Zrotation Yrotation Xrotation
					JOINT RightToeBase
					{
						OFFSET -0.200000 -0.500000 1.950000
						CHANNELS 3 Zrotation Yrotation Xrotation
						End Site
						{
							OFFSET 0.000000 0.000000 0.000000
						}
					}
				}
			}
		}
	}
	JOINT LowerBack
	{
		OFFSET 0.000000 0.000000 0.000000
		CHANNELS 3 Zrotation Yrotation Xrotation
		JOINT Spine
		{
			OFFSET -0.087000 1.940000 -0.288900
			CHANNELS 3 Zrotation Yrotation Xrotation
			JOINT Spine1
			{
				OFFSET 0.000000 1.950000 0.060000
				CHANNELS 3 Zrotation Yrotation Xrotation
				JOINT Neck
				{
					OFFSET 0.000000 0.000000 0.000000
					CHANNELS 3 Zrotation Yrotation Xrotation
					JOINT Neck1
					{
						OFFSET 0.000000 1.600000 0.340000
						CHANNELS 3 Zrotation Yrotation Xrotation
						JOINT Head
						{
							OFFSET 0.000000 1.667000 -0.240000
							CHANNELS 3 Zrotation Yrotation Xrotation
							End Site
							{
								OFFSET 0.000000 0.000000 0.000000
							}
						}
					}
				}
				JOINT LeftShoulder
				{
					OFFSET 0.000000 0.000000 0.000000
					CHANNELS 3 Zrotation Yrotation Xrotation
					JOINT LeftArm
					{
						OFFSET 2.700000 1.550000 -0.730000
						CHANNELS 3 Zrotation Yrotation Xrotation
						JOINT LeftForeArm
						{
							OFFSET 5.450000 0.000000 0.000000
							CHANNELS 3 Zrotation Yrotation Xrotation
							JOINT LeftHand
							{
								OFFSET 3.450000 0.000000 0.000000
								CHANNELS 3 Zrotation Yrotation Xrotation
								JOINT LeftHandIndex1
								{
									OFFSET 0.750000 0.000000 0.000000
									CHANNELS 3 Zrotation Yrotation Xrotation
									End Site
									{
										OFFSET 0.000000 0.000000 0.000000
									}
								}
							}
						}
					}
				}
				JOINT RightShoulder
				{
					OFFSET 0.000000 0.000000 0.000000
					CHANNELS 3 Zrotation Yrotation Xrotation
					JOINT RightArm
					{
						OFFSET -2.700000 1.550000 -0.730000
						CHANNELS 3 Zrotation Yrotation Xrotation
						JOINT RightForeArm
						{
							OFFSET -5.450000 0.000000 0.000000
							CHANNELS 3 Zrotation Yrotation Xrotation
							JOINT RightHand
							{
								OFFSET -3.450000 0.000000 0.000000
								CHANNELS 3 Zrotation Yrotation Xrotation
								JOINT RightHandIndex1
								{
									OFFSET -0.750000 0.000000 0.000000
									CHANNELS 3 Zrotation Yrotation Xrotation
									End Site
									{
										OFFSET 0.000000 0.000000 0.000000
									}
								}
							}
						}
					}
				}
			}
		}
	}
}
MOTION
Frames: 7
Frame Time: 0.016667
-0.572500 16.222740 -1.027610 -1.490115 -21.386893 8.103961 -14.682227 12.226269 2.351293 7.935369 -1.810959 -13.660031 -3.117076 3.807337 8.314005 -0.585705 3.584991 3.695396 0.315920 0.269150 -0.062670 18.714105 -11.713572 3.192717 -8.403291 2.696523 -23.181849 7.731963 -3.471387 6.926269 0.345471 -3.515463 3.260172 0.503760 0.976410 0.357780 -4.764965 2.390398 -6.576135 12.871168 -0.119937 0.696290 -4.819210 -0.807043 1.962302 5.516992 1.620166 -4.090455 4.827979 -2.350121 18.512675 -6.781120 -1.666500 6.258880 -3.743363 9.233060 -3.196074 -31.399547 -8.067840 0.183243 37.821179 -21.544092 -4.134621 -4.799001 3.447633 -0.497910 0.914590 -0.639260 0.428980 -7.269897 -6.835098 1.966726 30.569248 25.067343 4.559789 -43.453828 29.174369 -13.525639 1.948291 -2.476222 -0.219810 0.195340 -0.060960 0.163870 
-0.571150 16.223200 -1.027730 -1.498369 -21.346071 8.093567 -14.683328 12.226839 2.351207 7.937177 -1.813720 -13.668555 -3.111279 3.807062 8.320401 -0.586774 3.588265 3.695886 0.314560 0.266140 -0.064410 18.712933 -11.714379 3.191671 -8.401571 2.691266 -23.164110 7.727899 -3.472751 6.928648 0.347439 -3.518593 3.260809 0.503030 0.980200 0.358160 -4.761421 2.389994 -6.576159 12.855231 -0.128931 0.692814 -4.850324 -0.806834 1.968872 5.564084 1.621831 -4.098341 4.836598 -2.414639 18.489119 -6.790160 -1.749310 6.295690 -3.777397 9.222252 -3.207191 -31.403350 -8.079807 0.186207 37.797637 -21.587099 -4.150087 -4.801523 3.446733 -0.499850 0.917160 -0.643050 0.428910 -7.330417 -6.814019 1.986158 30.321635 25.051399 4.543289 -43.421567 29.100002 -13.485068 1.948116 -2.479021 -0.220650 0.196650 -0.058750 0.164120 
-0.569700 16.223640 -1.028070 -1.513836 -21.312673 8.081898 -14.684697 12.228507 2.350922 7.940474 -1.815159 -13.676626 -3.100968 3.806534 8.331115 -0.588522 3.591926 3.696113 0.311920 0.263070 -0.068080 18.711426 -11.714903 3.190724 -8.391742 2.686451 -23.143944 7.725536 -3.474402 6.934059 0.349629 -3.521905 3.260977 0.503110 0.984670 0.358110 -4.756811 2.387409 -6.576605 12.839952 -0.144047 0.692066 -4.894457 -0.810497 1.978743 5.630239 1.623955 -4.106051 4.844063 -2.456831 18.482011 -6.793000 -1.818740 6.332790 -3.778092 9.230641 -3.228632 -31.448479 -8.115542 0.199285 37.819105 -21.589536 -4.159124 -4.805237 3.444728 -0.501800 0.920110 -0.646740 0.428930 -7.459558 -6.803655 2.010039 30.080636 25.078392 4.566166 -43.232615 29.002377 -13.390797 1.948226 -2.481920 -0.222510 0.198810 -0.055900 0.164810 
-0.568050 16.224220 -1.028550 -1.535599 -21.289950 8.061879 -14.685685 12.231409 2.350921 7.949679 -1.815539 -13.682717 -3.095166 3.810087 8.355769 -0.590439 3.597762 3.695796 0.308670 0.258000 -0.070260 18.709698 -11.716481 3.190501 -8.380740 2.681076 -23.115608 7.725500 -3.478624 6.938387 0.351154 -3.524866 3.261521 0.501390 0.989260 0.358530 -4.751905 2.384987 -6.579233 12.835750 -0.171300 0.705556 -4.966660 -0.821290 1.999045 5.722837 1.630169 -4.128642 4.855309 -2.477562 18.503775 -6.820510 -1.850360 6.371200 -3.750733 9.233928 -3.249912 -31.504479 -8.130200 0.208471 37.871743 -21.554007 -4.159997 -4.810012 3.441582 -0.502300 0.922980 -0.649880 0.428580 -7.669451 -6.777255 2.054460 29.872298 25.159520 4.619470 -42.941069 28.815842 -13.250212 1.949336 -2.484647 -0.224860 0.201400 -0.052530 0.164560 
-0.566320 16.224830 -1.029140 -1.563887 -21.267488 8.028249 -14.686382 12.235271 2.350576 7.967245 -1.812715 -13.673546 -3.084928 3.813795 8.379174 -0.589934 3.602469 3.695609 0.304700 0.252870 -0.072340 18.707814 -11.718981 3.190944 -8.366923 2.672360 -23.066557 7.736166 -3.484530 6.933999 0.351761 -3.528411 3.261539 0.498610 0.992400 0.359050 -4.746913 2.382980 -6.583543 12.838161 -0.200292 0.731095 -5.061557 -0.831655 2.037504 5.835628 1.648731 -4.167035 4.884043 -2.503150 18.554419 -6.856490 -1.867600 6.417090 -3.725551 9.210403 -3.259200 -31.516698 -8.122221 0.204637 37.922251 -21.535118 -4.164189 -4.813467 3.438434 -0.502930 0.925030 -0.651620 0.427680 -7.916302 -6.728627 2.113801 29.662545 25.259180 4.681587 -42.578063 28.561216 -13.073819 1.952853 -2.487484 -0.226100 0.202870 -0.049720 0.164620 
-0.564560 16.225760 -1.029880 -1.580726 -21.246364 7.975827 -14.687653 12.241296 2.350886 7.967671 -1.807293 -13.649935 -3.065441 3.815406 8.401499 -0.590504 3.605332 3.695411 0.300900 0.248340 -0.073640 18.704925 -11.721552 3.191273 -8.362326 2.657436 -22.996762 7.748858 -3.491171 6.921018 0.351367 -3.531040 3.261779 0.496130 0.993740 0.357950 -4.739262 2.376913 -6.589576 12.817780 -0.234183 0.778082 -5.142069 -0.842966 2.071668 5.954061 1.668466 -4.210493 4.909923 -2.515643 18.646622 -6.884640 -1.875420 6.425910 -3.685979 9.182569 -3.263601 -31.543789 -8.095977 0.196885 37.965940 -21.522739 -4.168176 -4.814431 3.432631 -0.501020 0.925000 -0.651690 0.426290 -8.186174 -6.665482 2.168519 29.425707 25.411702 4.764593 -42.098865 28.229926 -12.842761 1.957684 -2.487781 -0.228310 0.205690 -0.047120 0.163930 
-0.563010 16.226840 -1.030710 -1.589329 -21.223040 7.924010 -14.689733 12.247325 2.351731 7.967572 -1.802847 -13.632175 -3.060619 3.820400 8.428452 -0.590691 3.611097 3.695065 0.297890 0.243580 -0.074710 18.701397 -11.723349 3.190969 -8.353887 2.643151 -22.924933 7.745555 -3.494070 6.900218 0.350940 -3.534021 3.262297 0.493730 0.996590 0.358740 -4.729511 2.369019 -6.595501 12.777185 -0.268216 0.819982 -5.211407 -0.854016 2.113513 6.074702 1.685409 -4.263200 4.930387 -2.520300 18.730363 -6.921810 -1.875630 6.456250 -3.629385 9.142193 -3.256409 -31.586844 -8.047678 0.187249 38.026818 -21.525044 -4.180101 -4.816136 3.428420 -0.499530 0.926370 -0.652000 0.426460 -8.476102 -6.580470 2.220738 29.163758 25.592283 4.866400 -41.482836 27.825930 -12.554933 1.962662 -2.489809 -0.230350 0.207920 -0.045190 0.163670 
